<svg width="68" height="53" viewBox="0 0 68 53" fill="none" xmlns="http://www.w3.org/2000/svg">
<g filter="url(#filter0_d_89_304)">
<path d="M57.9305 42.9545C57.9305 43.497 57.7174 44.0173 57.3379 44.4009C56.9585 44.7845 56.4439 45 55.9074 45H19.4904C18.9539 45 18.4393 44.7845 18.0598 44.4009C17.6804 44.0173 17.4673 43.497 17.4673 42.9545C17.4673 42.4121 17.6804 41.8918 18.0598 41.5082C18.4393 41.1246 18.9539 40.9091 19.4904 40.9091H55.9074C56.4439 40.9091 56.9585 41.1246 57.3379 41.5082C57.7174 41.8918 57.9305 42.4121 57.9305 42.9545ZM64 22.5V28.6364C64 29.1789 63.7868 29.6991 63.4074 30.0827C63.028 30.4663 62.5134 30.6818 61.9768 30.6818H17.4167C15.24 30.6894 13.1194 29.9834 11.3731 28.6696C9.6268 27.3558 8.34881 25.5051 7.7308 23.3949L4.16498 11.4034C3.98789 10.7898 3.95281 10.1431 4.06244 9.51357C4.17207 8.88401 4.42348 8.28837 4.79721 7.77275C5.17939 7.26416 5.67273 6.85181 6.23866 6.56794C6.8046 6.28407 7.4278 6.13637 8.05956 6.13639H12.4094C12.7047 6.13701 12.9963 6.20383 13.263 6.33204C13.5298 6.46025 13.7651 6.64667 13.952 6.87786L18.403 12.2727H22.7528L20.4767 5.39491C20.2718 4.77893 20.215 4.12246 20.3111 3.47987C20.4071 2.83728 20.6531 2.22707 21.0288 1.69976C21.4046 1.17246 21.8991 0.743236 22.4716 0.447651C23.0441 0.152067 23.6779 -0.00137704 24.3207 2.79722e-05H28.5947C28.8756 -0.00146688 29.1537 0.0569681 29.4108 0.171517C29.6679 0.286065 29.8983 0.454151 30.0867 0.6648L40.6072 12.2727H53.8842C56.5671 12.2727 59.1401 13.3503 61.0372 15.2682C62.9342 17.1862 64 19.7876 64 22.5ZM59.9537 22.5C59.947 20.8746 59.3054 19.3177 58.1686 18.1684C57.0318 17.0191 55.4919 16.3704 53.8842 16.3637H39.7221C39.4411 16.3651 39.163 16.3067 38.9059 16.1922C38.6488 16.0776 38.4185 15.9095 38.23 15.6989L27.7095 4.09093H24.3207L27.4819 13.679C27.5809 13.9865 27.6073 14.3132 27.559 14.6328C27.5107 14.9525 27.389 15.2563 27.2037 15.5199C27.0169 15.7837 26.77 15.9981 26.4838 16.1449C26.1977 16.2918 25.8808 16.3668 25.5599 16.3637H17.4673C17.1719 16.363 16.8804 16.2962 16.6136 16.168C16.3469 16.0398 16.1115 15.8534 15.9246 15.6222L11.4737 10.2273H8.03428L11.6001 22.2188C11.9719 23.4853 12.7396 24.5959 13.7883 25.3841C14.8369 26.1723 16.11 26.5958 17.4167 26.5909H59.9537V22.5Z" fill="white"/>
</g>
<defs>
<filter id="filter0_d_89_304" x="0" y="0" width="68" height="53" filterUnits="userSpaceOnUse" color-interpolation-filters="sRGB">
<feFlood flood-opacity="0" result="BackgroundImageFix"/>
<feColorMatrix in="SourceAlpha" type="matrix" values="0 0 0 0 0 0 0 0 0 0 0 0 0 0 0 0 0 0 127 0" result="hardAlpha"/>
<feOffset dy="4"/>
<feGaussianBlur stdDeviation="2"/>
<feComposite in2="hardAlpha" operator="out"/>
<feColorMatrix type="matrix" values="0 0 0 0 0 0 0 0 0 0 0 0 0 0 0 0 0 0 0.25 0"/>
<feBlend mode="normal" in2="BackgroundImageFix" result="effect1_dropShadow_89_304"/>
<feBlend mode="normal" in="SourceGraphic" in2="effect1_dropShadow_89_304" result="shape"/>
</filter>
</defs>
</svg>
